# xmcd
#
# Track frame offsets:
#	182
#	13125
#	23435
#	34750
#	43375
#	57160
#	65985
#	76012
#	85375
#	96152
#	108072
#	119542
#	132650
#	149640
#	160572
#	171515
#
# Disc length: 2464 seconds
#
# Revision: 1
# Processed by: cddbd v1.4PL0 Copyright (c) Steve Scherf et al.
# Submitted via: audiograbber 1.81.02
#
DISCID=de099e10
DTITLE=Various Artist - US STARS ihre grossen erfolge
DYEAR=1900
DGENRE=Blues
TTITLE0=Frank Sinatra  - All The Way
TTITLE1=Elvis Presley  - Wear My Ring Around Your Neck
TTITLE2=Perry Como  - Catch A Falling Star
TTITLE3=Jerry Lee Lewis - Great Balls Of Fire
TTITLE4=Chuck Berry - Sweet Little Sixteen
TTITLE5=The Everly Brothers - Problems
TTITLE6=Bobby Darin  - Splish Splash
TTITLE7=Pat Boone  -  A Wonderful Time Up Here
TTITLE8=Tge Four Prepsn - Big Man
TTITLE9=Paul Anka  - Put Your Head On My Shoulder
TTITLE10=Fabian  - Tiger
TTITLE11=The Crests  - Sixteen Candles
TTITLE12=Tommy Steele - Little White Bull
TTITLE13=The Teddy Bears  - To Know Him Is To Love Him
TTITLE14=The Everly Brothers  - 'Til I Kissed You
TTITLE15=Gene Pitney  - Twenty Four Hours From Tulsa
EXTD=
EXTT0=
EXTT1=
EXTT2=
EXTT3=
EXTT4=
EXTT5=
EXTT6=
EXTT7=
EXTT8=
EXTT9=
EXTT10=
EXTT11=
EXTT12=
EXTT13=
EXTT14=
EXTT15=
PLAYORDER=
